<svg width="54" height="54" viewBox="0 0 54 54" fill="none" xmlns="http://www.w3.org/2000/svg">
<path d="M43.5791 44.103C43.303 44.4559 42.9098 44.6915 42.4752 44.7646L37.6384 46.1693C37.216 46.3322 36.7504 46.3322 36.328 46.1693C35.982 45.8762 35.7507 45.4643 35.6767 45.0096C28.648 18.0497 27.679 12.2347 24.8437 12.2347C22.0084 12.2347 21.0871 18.0497 14.0107 45.026C13.9395 45.4797 13.711 45.8917 13.3674 46.1856C12.9449 46.3485 12.4794 46.3485 12.057 46.1856L7.21226 44.7809C6.78044 44.7059 6.39042 44.4706 6.11625 44.1194C5.96125 43.6871 5.96125 43.2122 6.11625 42.78C13.3038 15.2974 17.3305 7.53857 24.8437 7.53857C32.3569 7.53857 36.3915 15.2974 43.5791 42.7636C43.73 43.1966 43.73 43.6701 43.5791 44.103Z" fill="#FDB913"/>
<path d="M48 26.8571C47.9964 27.1215 47.9366 27.382 47.8248 27.6205L47.6257 28.1809C47.5338 28.5096 47.3343 28.7963 47.0602 28.993C46.7435 29.1334 46.3885 29.1564 46.0568 29.0581C39.7287 27.636 33.1142 28.4604 27.3083 31.3951C21.5024 34.3297 16.8533 39.1984 14.1308 45.1951C13.9318 45.6418 13.6212 46.3078 12.9124 46.3078C12.6417 46.3016 12.3735 46.255 12.116 46.1697L7.25825 44.7729C6.64505 44.6023 6 44.383 6 43.6115C6.02229 43.2848 6.11184 42.9666 6.2628 42.6776C9.71362 35.1375 15.8378 29.211 23.402 26.0917C30.9662 22.9723 39.4084 22.8918 47.0284 25.8664C47.4107 25.9882 48 26.2237 48 26.8571Z" fill="url(#paint0_linear_2882_3904)"/>
<defs>
<linearGradient id="paint0_linear_2882_3904" x1="6" y1="34.9785" x2="48" y2="34.9785" gradientUnits="userSpaceOnUse">
<stop offset="0.3" stop-color="#FDB913"/>
<stop offset="0.75" stop-color="#F7941F"/>
</linearGradient>
</defs>
</svg>
