<svg width="54" height="54" viewBox="0 0 54 54" fill="none" xmlns="http://www.w3.org/2000/svg">
<path d="M47.667 19.3938C47.022 18.9274 45.7709 18.2918 43.3663 17.719C42.6471 17.5475 41.8224 17.3831 40.8826 17.2357C39.6983 17.0424 38.3245 16.8708 36.7374 16.7282L36.5145 16.7089C36.1932 15.9428 35.86 15.1598 35.5076 14.3357C35.3206 13.8934 35.1408 13.4488 34.9514 12.9775C34.9298 12.9219 34.9058 12.8639 34.8818 12.8083C34.189 11.0756 33.4434 9.29688 32.1871 7.71636C30.7822 5.96426 28.9362 5 26.9919 5C25.0476 5 23.204 5.96668 21.7967 7.71636C20.5309 9.29446 19.7973 11.0732 19.1044 12.8035L19.0325 12.9775C18.8455 13.4488 18.6657 13.8934 18.4763 14.3357C18.1239 15.1598 17.793 15.9428 17.4694 16.7089L17.2488 16.7282C15.6569 16.8708 14.2832 17.0424 13.0965 17.2381C12.1567 17.388 11.3368 17.5547 10.6199 17.7215C8.22249 18.2942 6.96149 18.9298 6.31889 19.3962C6.20559 19.4796 6.11669 19.5924 6.06179 19.7226C6.00699 19.8528 5.98809 19.9956 6.00729 20.1357L6.21589 21.6993C6.53229 24.0387 6.87039 26.7865 7.42659 29.6188C7.83649 31.7994 8.41119 33.9452 9.14549 36.0376C9.44039 36.8617 9.76879 37.6713 10.1356 38.4543C11.7046 41.6431 14.1317 44.3229 17.1396 46.1876C20.1475 48.0523 23.615 49.0267 27.146 48.9994C30.6771 48.9722 34.1294 47.9445 37.1087 46.0337C40.0879 44.1229 42.474 41.406 43.9944 38.1933C44.2773 37.5649 44.5387 36.9221 44.7784 36.2599C46.4902 31.6199 47.149 26.4989 47.694 22.4316L47.996 20.114C48.01 19.9753 47.987 19.8352 47.93 19.7084C47.872 19.5817 47.781 19.473 47.667 19.3938ZM26.9775 16.3439C25.026 16.3439 23.2495 16.3802 21.6361 16.4454C21.7224 16.24 21.8111 16.0346 21.9022 15.8219C22.106 15.3386 22.3026 14.8553 22.492 14.3719C22.8863 13.3188 23.3484 12.2928 23.8753 11.3003C24.115 10.8693 24.3892 10.4587 24.6952 10.0726C25.0884 9.5893 25.9107 8.75554 26.9775 8.75554C28.0444 8.75554 28.8667 9.57963 29.2623 10.0726C29.5683 10.4587 29.8425 10.8693 30.0822 11.3003C30.6081 12.2933 31.0701 13.3193 31.4655 14.3719C31.6549 14.8553 31.8491 15.3386 32.0553 15.8219C32.1464 16.0346 32.2327 16.24 32.3214 16.4454C30.7079 16.3802 28.9314 16.3439 26.9775 16.3439Z" fill="url(#paint0_linear_2884_3931)"/>
<defs>
<linearGradient id="paint0_linear_2884_3931" x1="27" y1="5" x2="27" y2="49" gradientUnits="userSpaceOnUse">
<stop stop-color="#97D700"/>
<stop offset="0.630208" stop-color="#50BC25"/>
<stop offset="1" stop-color="#009F64"/>
</linearGradient>
</defs>
</svg>
