<svg width="54" height="54" viewBox="0 0 54 54" fill="none" xmlns="http://www.w3.org/2000/svg">
<path d="M6 8.17098C6 6.97184 6.97208 6 8.17152 6H32.4856C41.0541 6 48 12.9442 48 21.5105V32.4895C48 41.0558 41.0541 48 32.4856 48H8.1819C6.98555 48 6.01433 47.0326 6.01038 45.8362L6 8.17098Z" fill="url(#paint0_linear_2882_3893)"/>
<path d="M26.9999 33C22.4477 33 18.1468 30.9029 15.2638 27.3331C14.8326 26.7993 14.9438 25.9984 15.4971 25.6008L17.4281 24.2135C17.921 23.8593 18.5892 23.9566 18.9815 24.4251C20.9803 26.8107 23.9067 28.207 26.9999 28.207C30.0929 28.207 33.0192 26.8107 35.0185 24.4251C35.4108 23.957 36.0789 23.8593 36.5719 24.2135L38.5029 25.6008C39.0562 25.9981 39.1674 26.7989 38.7362 27.3331C35.8532 30.9026 31.5523 33 26.9999 33Z" fill="white"/>
<defs>
<linearGradient id="paint0_linear_2882_3893" x1="4.68475" y1="45.4029" x2="41.4956" y2="8.58301" gradientUnits="userSpaceOnUse">
<stop stop-color="#F16169"/>
<stop offset="0.6163" stop-color="#F04E5F"/>
<stop offset="0.9977" stop-color="#D53459"/>
</linearGradient>
</defs>
</svg>
