<svg width="54" height="54" viewBox="0 0 54 54" fill="none" xmlns="http://www.w3.org/2000/svg">
<path d="M26.4731 6L19.7539 31.8044H25.3395C28.043 31.8044 30.4039 29.9757 31.079 27.3581L36.6511 6H26.4731Z" fill="#00E261"/>
<path fill-rule="evenodd" clip-rule="evenodd" d="M23.106 35.4531C26.5682 35.4531 29.3789 38.2638 29.3789 41.726C29.3789 45.1882 26.5682 48 23.106 48C19.6438 48 16.832 45.1882 16.832 41.726C16.832 38.2638 19.6427 35.4531 23.106 35.4531Z" fill="#00E261"/>
<path d="M20.0252 6.51883H20.0386L20.8174 8.68789H21.1622L21.9421 6.51883H21.9555V8.68789H22.5402V6H21.5962L20.9904 7.58997L20.3856 6H19.4395V8.68789H20.0252V6.51883Z" fill="#00E261"/>
<path d="M17.651 8.68789H18.297V6.51883H19.1149V6H16.832V6.51883H17.651V8.68789Z" fill="#00E261"/>
</svg>
