<svg width="54" height="54" viewBox="0 0 54 54" fill="none" xmlns="http://www.w3.org/2000/svg">
<path d="M17.2461 30.5985C17.2461 31.2935 17.4522 31.9729 17.8383 32.5508C18.2245 33.1287 18.7733 33.579 19.4155 33.8449C20.0576 34.1109 20.7641 34.1804 21.4458 34.0447C22.1274 33.909 22.7535 33.5743 23.2449 33.0827C23.7363 32.5912 24.0708 31.965 24.2063 31.2833C24.3417 30.6017 24.272 29.8951 24.0059 29.2531C23.7398 28.611 23.2892 28.0623 22.7112 27.6763C22.1333 27.2904 21.4538 27.0845 20.7588 27.0847C19.8271 27.085 18.9336 27.4553 18.2749 28.1142C17.6161 28.7732 17.2461 29.6668 17.2461 30.5985Z" fill="#5A595C"/>
<path d="M24.803 8.33516H23.8982C19.8623 8.33532 15.9277 9.59852 12.6459 11.9476C9.36416 14.2968 6.89986 17.614 5.59852 21.4343C5.28401 22.5337 5.08727 23.6634 5.01161 24.8044C4.98548 29.9983 5.01161 46.4349 5.01161 46.4349C5.01161 46.4349 22.0286 46.4513 26.0933 46.4349H27.7016C28.4545 46.3989 29.2011 46.2788 29.9273 46.0767C33.7955 44.7913 37.1613 42.3215 39.548 39.0171C41.9347 35.7127 43.2214 31.7411 43.2257 27.6649C43.2257 27.0758 43.1506 20.1669 43.1549 16.6803H49V8.33081L24.803 8.33516ZM13.0355 27.5843C13.0519 25.439 13.703 23.3465 14.9068 21.5706C16.1107 19.7948 17.8133 18.4151 19.8001 17.6055C21.7869 16.7959 23.9689 16.5927 26.071 17.0214C28.1732 17.4501 30.1013 18.4915 31.6124 20.0145C33.1236 21.5374 34.15 23.4736 34.5623 25.579C34.9746 27.6845 34.7543 29.8648 33.9293 31.8453C33.1043 33.8257 31.7114 35.5175 29.9262 36.7075C28.1411 37.8974 26.0436 38.5322 23.8982 38.5319C23.8982 38.5319 16.7355 38.546 13.0355 38.546V27.5843Z" fill="#E54E63"/>
</svg>
