<svg width="54" height="54" viewBox="0 0 54 54" fill="none" xmlns="http://www.w3.org/2000/svg">
<g clip-path="url(#clip0_2887_3978)">
<path fill-rule="evenodd" clip-rule="evenodd" d="M0.824947 43.1584H0.797636C0.379912 43.1584 0.0410156 42.8291 0.0410156 42.4225C0.0410156 42.0166 0.379912 41.6873 0.797636 41.6873H24.6011V43.1578H0.824947V43.1584Z" fill="#B3B3B3"/>
<path d="M10.4762 17.9598L12.6992 15.7996L10.4762 13.6393L8.25327 15.7996L10.4762 17.9598Z" fill="#4D4D4D"/>
<path d="M10.4759 22.2716L12.6992 20.1113L10.4767 17.9512L8.25339 20.1114L10.4759 22.2716Z" fill="#4D4D4D"/>
<path d="M51.588 17.9589L53.8105 15.7991L51.5876 13.6388L49.365 15.7986L51.588 17.9589Z" fill="#4D4D4D"/>
<path d="M51.5856 22.2736L53.8086 20.113L51.5853 17.9528L49.3623 20.1133L51.5856 22.2736Z" fill="#4D4D4D"/>
<path fill-rule="evenodd" clip-rule="evenodd" d="M6.96643 37.1551V34.9487H8.19788V40.098H6.96643V37.8464H5.64746V40.1023H4.41602V34.9487H5.64746V37.1491L6.96643 37.1551ZM9.96064 37.926H11.0444L10.4764 36.0761L9.96064 37.926ZM8.71057 40.1023L10.2182 34.9536H11.4068L13.0157 40.1023H11.7085L11.2448 38.5804H9.77071L9.33436 40.1023H8.71057ZM15.9987 40.1023L14.8101 37.5707L16.1222 34.9487H16.7696L15.8181 36.8318L17.3524 40.098L15.9987 40.1023ZM13.5253 40.1023V34.9487H14.7567V40.098L13.5253 40.1023ZM17.7348 40.1023V34.9487H20.4869V35.6424H18.9668V37.1413H20.4056V37.8349H18.9668V39.405H20.5682V40.0986L17.7348 40.1023ZM22.1783 40.1023V35.6454H21.0071V34.9487H24.5791V35.6424H23.4079V40.098L22.1783 40.1023Z" fill="#4D4D4D"/>
<path fill-rule="evenodd" clip-rule="evenodd" d="M0.182914 35.6453V34.9517H3.8754L1.76505 39.4079H3.74878V40.1022H0.0625L2.16974 35.6453H0.182914Z" fill="#FEA000"/>
<path fill-rule="evenodd" clip-rule="evenodd" d="M26.5938 24.4438L36.2188 31.1161L39.2018 28.6473L40.3904 27.1792L26.5938 17.6152V24.4438Z" fill="#FEA000"/>
<path d="M26.5938 24.4438L36.2188 31.1161L39.2018 28.6473L40.3904 27.1792L26.5938 17.6152V24.4438Z" stroke="#4D4D4D" stroke-width="0.22" stroke-miterlimit="2.61"/>
<path fill-rule="evenodd" clip-rule="evenodd" d="M27.7647 23.4291L36.7783 29.6822L36.7907 29.6919V29.7069L36.6517 31.4031V31.4495L36.6126 31.4212L26.1987 24.2217L26.1875 24.2138V17.9848H26.2111L26.9857 17.8799H27.0043L40.4044 27.1513L40.4156 27.1591V34.0076L40.3727 33.978C38.8384 32.914 38.9141 32.4067 38.988 31.9393C39.0612 31.6715 39.0091 31.385 38.8452 31.1576V31.1425V28.7551V28.74L39.2245 28.2436L38.8496 27.9565L27.764 20.289L27.7647 23.4291Z" fill="#4D4D4D"/>
<path d="M26.1987 17.851L40.3734 8.02895L40.4156 8V8.05248V14.881V14.8949L40.405 14.9027L33.6687 19.5954L33.6258 19.6256V19.5749V17.763V17.7491L33.6364 17.7413L38.8403 14.1114V10.97L28.0638 18.4373L27.8131 18.6189L27.4556 21.0231L27.4065 23.3532L27.4047 23.3797H27.3792L26.2167 23.4226L26.1875 23.4244V23.3966V17.8728V17.8589L26.1987 17.851Z" fill="#4D4D4D"/>
<path fill-rule="evenodd" clip-rule="evenodd" d="M26.1841 28.3017V28.2462H9.13748H8.955C7.89672 28.2679 6.66962 28.2938 5.62252 28.0489H5.59893C4.89383 27.8734 4.22348 27.5857 3.61521 27.1973C3.01562 26.8142 2.48741 26.3341 2.05355 25.7786C1.95858 25.6561 1.86672 25.5295 1.77921 25.398C1.71341 25.2954 1.65072 25.1923 1.59052 25.0898C1.61472 25.7677 1.73638 26.4385 1.95238 27.0839C2.42286 28.473 3.34396 29.6757 4.57727 30.5135C5.22962 30.9556 5.949 31.2952 6.70996 31.519C6.85148 31.5624 7.01658 31.601 7.18603 31.6378C7.35548 31.6746 7.58762 31.7132 7.7999 31.7446C8.04321 31.7802 8.27596 31.8073 8.48265 31.826C8.68934 31.8447 8.87121 31.8574 9.01893 31.8604H24.6051V33.3931H9.05307C8.55962 33.3804 8.06679 33.337 7.57893 33.2634C7.12831 33.2019 6.68389 33.1084 6.24755 32.9841C2.44458 31.9068 -0.12445 28.4633 0.00465336 24.6163C0.0294809 22.934 0.575688 21.2982 1.57252 19.9224C2.58052 18.5266 3.99196 17.453 5.62872 16.8383L5.66534 16.8245V17.3625H5.64796C4.68093 17.7057 3.83927 18.3185 3.22976 19.125C2.63638 19.9145 2.30989 20.8633 2.295 21.8405C2.28445 22.9238 2.63762 23.9805 3.30114 24.8509C3.969 25.6996 4.91245 26.3034 5.97817 26.5639C6.83534 26.7648 7.95693 26.7401 8.92396 26.7183H9.10645H26.2288C26.6428 26.7286 27.0363 26.8945 27.3268 27.181C27.616 27.4807 27.7737 27.8782 27.7662 28.2896V40.9086L38.835 33.2278V30.0985L29.3893 36.6556L29.3471 36.6852V34.8087L29.3583 34.8009L40.3389 27.187H40.3501H40.3929H40.4246V34.0228L40.4134 34.0306L27.644 42.8955C27.5068 43.0161 27.3448 43.1072 27.1673 43.1603C26.9767 43.2091 26.7744 43.1862 26.6006 43.0957C26.4671 43.0246 26.3567 42.9172 26.2834 42.7869C26.212 42.6512 26.1791 42.4998 26.1866 42.3472V28.3017H26.1841Z" fill="#4D4D4D"/>
<path d="M41.9787 34.8208L51.5379 28.1895L51.5808 28.1599V35.0566L51.569 35.0645L40.1979 42.9751L40.1762 42.992C40.0092 43.1295 39.7945 43.1983 39.576 43.1826C39.3755 43.1669 39.1887 43.0752 39.0552 42.928L39.0416 42.9112L39.0099 42.8732C38.8939 42.7224 38.8405 42.5354 38.8591 42.349C38.879 42.1487 38.9783 41.9636 39.1366 41.8339L39.1843 41.7971L40.3612 40.978L40.4052 40.9472L50.0017 34.2671V31.1318L42.0097 36.6755L41.9675 36.7051V34.8292L41.9787 34.8208Z" fill="#4D4D4D"/>
<path d="M46.1983 28.14L46.1853 12.75L43.543 14.5939L43.548 24.9372V24.951L43.5374 24.9589L42.0217 26.012L41.9789 26.0428V25.9903L41.9727 13.8243V13.8104L41.9838 13.8032L47.7103 9.80592L47.7538 9.77637V9.82764L47.7693 28.9079V28.9223L47.7581 28.9296L42.031 32.9051L41.9882 32.9347V32.8834L41.9863 31.0684V31.0546L41.9975 31.0467L43.5132 30.0135L46.1983 28.14Z" fill="#4D4D4D"/>
<path d="M51.5856 26.5917L53.8086 24.4312L51.5853 22.2709L49.3623 24.4315L51.5856 26.5917Z" fill="#4D4D4D"/>
<path d="M29.3399 43.5813L40.3559 35.959L40.3987 35.9294V35.9801V37.792V37.8059L40.387 37.8138L38.865 38.8705L29.371 45.4361L29.3281 45.4656V45.4144V43.6024V43.5892L29.3399 43.5813Z" fill="#FEA000"/>
</g>
<defs>
<clipPath id="clip0_2887_3978">
<rect width="54" height="38" fill="white" transform="translate(0 8)"/>
</clipPath>
</defs>
</svg>
